<svg width="80" height="80" viewBox="0 0 80 80" fill="none" xmlns="http://www.w3.org/2000/svg">
<path d="M0 40C0 17.9086 17.9086 0 40 0V0C62.0914 0 80 17.9086 80 40V40C80 62.0914 62.0914 80 40 80V80C17.9086 80 0 62.0914 0 40V40Z" fill="white"/>
<path d="M28.1914 30.7832L21.2305 52H15.623L25.1328 26.4062H28.7012L28.1914 30.7832ZM33.9746 52L26.9961 30.7832L26.4336 26.4062H30.0371L39.5996 52H33.9746ZM33.6582 42.4727V46.6035H20.1406V42.4727H33.6582ZM52.3789 30.7832L45.418 52H39.8105L49.3203 26.4062H52.8887L52.3789 30.7832ZM58.1621 52L51.1836 30.7832L50.6211 26.4062H54.2246L63.7871 52H58.1621ZM57.8457 42.4727V46.6035H44.3281V42.4727H57.8457Z" fill="#1A4876"/>
</svg>
